<svg width="24" height="24" viewBox="0 0 24 24" fill="none" xmlns="http://www.w3.org/2000/svg">
<g clip-path="url(#clip0_621:67347)">
<path d="M1.86667 2.99988C0.846371 2.99988 0 3.84625 0 4.86654V18.7332C0 19.7535 0.846371 20.5999 1.86667 20.5999H22.1333C23.1536 20.5999 24 19.7535 24 18.7332V4.86654C24 3.84625 23.1536 2.99988 22.1333 2.99988H1.86667ZM1.86667 4.59988H22.1333C22.2949 4.59988 22.4 4.70497 22.4 4.86654V18.7332C22.4 18.8948 22.2949 18.9999 22.1333 18.9999H1.86667C1.7051 18.9999 1.6 18.8948 1.6 18.7332V4.86654C1.6 4.70497 1.7051 4.59988 1.86667 4.59988ZM3.46667 5.39988C2.87756 5.39988 2.4 5.87744 2.4 6.46655C2.4 7.05565 2.87756 7.53321 3.46667 7.53321C4.05577 7.53321 4.53333 7.05565 4.53333 6.46655C4.53333 5.87744 4.05577 5.39988 3.46667 5.39988ZM16.8 5.39988C16.5292 5.39988 16.2798 5.50027 16.0917 5.66654H14.1333C14.1056 5.6651 14.0778 5.6651 14.05 5.66654C13.8408 5.68982 13.6492 5.79461 13.5167 5.95821L8.43333 12.0665H4.175C3.98689 11.9003 3.73747 11.7999 3.46667 11.7999C2.87756 11.7999 2.4 12.2774 2.4 12.8665C2.4 13.4556 2.87756 13.9332 3.46667 13.9332C3.73747 13.9332 3.98689 13.8328 4.175 13.6665H11.825C12.0131 13.8328 12.2625 13.9332 12.5333 13.9332C13.1224 13.9332 13.6 13.4556 13.6 12.8665C13.6 12.2774 13.1224 11.7999 12.5333 11.7999C12.2625 11.7999 12.0131 11.9003 11.825 12.0665H10.5083L14.5083 7.26655H16.0917C16.2798 7.43282 16.5292 7.53321 16.8 7.53321C17.3891 7.53321 17.8667 7.05565 17.8667 6.46655C17.8667 5.87744 17.3891 5.39988 16.8 5.39988ZM20.5333 5.39988C19.9442 5.39988 19.4667 5.87744 19.4667 6.46655C19.4667 7.05565 19.9442 7.53321 20.5333 7.53321C21.1224 7.53321 21.6 7.05565 21.6 6.46655C21.6 5.87744 21.1224 5.39988 20.5333 5.39988ZM7.45833 5.64988C7.43043 5.6512 7.40261 5.65398 7.375 5.65821C7.17765 5.68096 6.99582 5.77632 6.8649 5.92573C6.73397 6.07514 6.66331 6.26792 6.66667 6.46655V9.22488C6.50039 9.41299 6.4 9.66241 6.4 9.93321C6.4 10.5223 6.87756 10.9999 7.46667 10.9999C8.05577 10.9999 8.53333 10.5223 8.53333 9.93321C8.53333 9.66241 8.43294 9.41299 8.26667 9.22488V6.46655C8.2689 6.35939 8.24957 6.25288 8.20984 6.15334C8.17011 6.0538 8.11079 5.96325 8.0354 5.88708C7.96 5.81091 7.87007 5.75066 7.77094 5.70991C7.67181 5.66916 7.5655 5.64875 7.45833 5.64988ZM15.2 9.39988C14.6109 9.39988 14.1333 9.87744 14.1333 10.4665C14.1333 10.9699 14.4811 11.3877 14.95 11.4999L16.2583 13.3332C16.3324 13.4364 16.43 13.5204 16.5431 13.5784C16.6561 13.6364 16.7813 13.6666 16.9083 13.6665H19.825C20.0131 13.8328 20.2625 13.9332 20.5333 13.9332C21.1224 13.9332 21.6 13.4556 21.6 12.8665C21.6 12.2774 21.1224 11.7999 20.5333 11.7999C20.2625 11.7999 20.0131 11.9003 19.825 12.0665H17.325L16.2583 10.5665C16.2614 10.5335 16.2667 10.5004 16.2667 10.4665C16.2667 9.87744 15.7891 9.39988 15.2 9.39988ZM10.925 14.4499C10.8971 14.4512 10.8693 14.454 10.8417 14.4582C10.6443 14.481 10.4625 14.5763 10.3316 14.7257C10.2006 14.8751 10.13 15.0679 10.1333 15.2665V16.3332H7.90833C7.72023 16.1669 7.4708 16.0665 7.2 16.0665C6.6109 16.0665 6.13333 16.5441 6.13333 17.1332C6.13333 17.7223 6.6109 18.1999 7.2 18.1999C7.4708 18.1999 7.72023 18.0995 7.90833 17.9332H13.9583C14.1464 18.0995 14.3959 18.1999 14.6667 18.1999C15.2558 18.1999 15.7333 17.7223 15.7333 17.1332C15.7333 16.5441 15.2558 16.0665 14.6667 16.0665C14.3959 16.0665 14.1464 16.1669 13.9583 16.3332H11.7333V15.2665C11.7356 15.1594 11.7162 15.0529 11.6765 14.9533C11.6368 14.8538 11.5775 14.7633 11.5021 14.6871C11.4267 14.6109 11.3367 14.5507 11.2376 14.5099C11.1385 14.4692 11.0322 14.4488 10.925 14.4499ZM3.46667 16.0665C2.87756 16.0665 2.4 16.5441 2.4 17.1332C2.4 17.7223 2.87756 18.1999 3.46667 18.1999C4.05577 18.1999 4.53333 17.7223 4.53333 17.1332C4.53333 16.5441 4.05577 16.0665 3.46667 16.0665ZM20.5333 16.0665C19.9442 16.0665 19.4667 16.5441 19.4667 17.1332C19.4667 17.7223 19.9442 18.1999 20.5333 18.1999C21.1224 18.1999 21.6 17.7223 21.6 17.1332C21.6 16.5441 21.1224 16.0665 20.5333 16.0665Z" fill="#D0D5DD"/>
</g>
<defs>
<clipPath id="clip0_621:67347">
<rect width="24" height="24" fill="white"/>
</clipPath>
</defs>
</svg>
