<svg width="24" height="24" viewBox="0 0 24 24" fill="none" xmlns="http://www.w3.org/2000/svg">
<path d="M4.66072 14.7724C4.74136 14.8161 4.83976 14.808 4.9132 14.7542C4.98712 14.7009 5.02408 14.6092 5.00872 14.5195L4.71208 12.7915L5.96776 11.567C6.03304 11.5032 6.05656 11.4076 6.02824 11.3208C5.99992 11.2339 5.92504 11.1705 5.83432 11.1576L4.09912 10.9056L3.32296 9.33308C3.24232 9.16892 2.97304 9.16892 2.89288 9.33308L2.1172 10.9056L0.381519 11.1576C0.291279 11.1705 0.215919 11.2339 0.187599 11.3208C0.159279 11.4076 0.182799 11.5027 0.248079 11.5665L1.50424 12.791L1.2076 14.519C1.19224 14.6092 1.2292 14.7004 1.30312 14.7537C1.34488 14.784 1.39432 14.7998 1.44424 14.7998C1.48264 14.7998 1.52104 14.7907 1.55608 14.772L3.10792 13.956L4.66072 14.7724Z" fill="#D0D5DD"/>
<path d="M23.8114 11.3217C23.7831 11.2348 23.7082 11.1715 23.618 11.1585L21.8818 10.906L21.1062 9.33357C21.0255 9.16941 20.7562 9.16941 20.6761 9.33357L19.9004 10.906L18.1652 11.1585C18.075 11.1715 17.9996 11.2348 17.9718 11.3217C17.9434 11.4086 17.967 11.5036 18.0327 11.5675L19.2874 12.791L18.9908 14.5195C18.9754 14.6097 19.0124 14.7009 19.0863 14.7542C19.1602 14.808 19.2582 14.8152 19.3388 14.7724L20.8911 13.9564L22.4434 14.7724C22.4785 14.7912 22.5164 14.8003 22.5548 14.8003C22.6047 14.8003 22.6542 14.7849 22.6959 14.7542C22.7698 14.7009 22.8068 14.6097 22.7914 14.5195L22.4948 12.791L23.7505 11.5675C23.8162 11.5036 23.8398 11.4086 23.8114 11.3217Z" fill="#D0D5DD"/>
<path d="M7.07785 17.3841L7.10041 15.6316C7.10137 15.5404 7.05049 15.456 6.96937 15.4147C6.88825 15.3724 6.79033 15.3811 6.71689 15.4363L5.31145 16.4856L3.65113 15.922C3.56425 15.8928 3.46921 15.9148 3.40441 15.9796C3.33961 16.0444 3.31753 16.14 3.34681 16.2264L3.90985 17.8872L2.86105 19.2926C2.80633 19.3656 2.79817 19.4635 2.83993 19.5451C2.88121 19.6262 2.95465 19.6627 3.05689 19.6756L4.80985 19.6526L5.82217 21.0849C5.86777 21.1492 5.94121 21.1862 6.01801 21.1862C6.03049 21.1862 6.04297 21.1852 6.05545 21.1833C6.14569 21.1689 6.22009 21.1046 6.24697 21.0172L6.76777 19.343L8.44201 18.8222C8.52937 18.7948 8.59321 18.7209 8.60761 18.6307C8.62201 18.5404 8.58361 18.4497 8.50921 18.3974L7.07785 17.3841Z" fill="#D0D5DD"/>
<path d="M15.628 7.10067C15.629 7.10067 15.63 7.10067 15.6314 7.10067L17.3834 7.07811L18.3962 8.50995C18.4418 8.57427 18.5148 8.61123 18.592 8.61123C18.6045 8.61123 18.617 8.61027 18.6295 8.60835C18.7197 8.59395 18.7941 8.52963 18.821 8.44275L19.3418 6.76803L21.0165 6.24723C21.1039 6.21987 21.1677 6.14595 21.1826 6.05571C21.1965 5.96547 21.1586 5.87523 21.0842 5.82243L19.6519 4.81011L19.6749 3.05715C19.6759 2.96595 19.625 2.88195 19.5444 2.84019C19.4618 2.79891 19.3648 2.80707 19.2919 2.86131L17.886 3.91011L16.2256 3.34659C16.1392 3.31779 16.0437 3.33987 15.9784 3.40419C15.9136 3.46899 15.8916 3.56451 15.9208 3.65091L16.4844 5.31123L15.4356 6.71715C15.3808 6.79011 15.3722 6.88803 15.414 6.96963C15.4548 7.05027 15.5378 7.10067 15.628 7.10067Z" fill="#D0D5DD"/>
<path d="M7.51568 5.31167L8.07872 3.65135C8.108 3.56495 8.08592 3.46943 8.02112 3.40463C7.95632 3.34031 7.86128 3.31823 7.7744 3.34703L6.11408 3.91007L4.70864 2.86127C4.63568 2.80703 4.53776 2.79839 4.45616 2.84015C4.37504 2.88143 4.32416 2.96591 4.32512 3.05711L4.34768 4.81007L2.91584 5.82239C2.84144 5.87519 2.80304 5.96543 2.81744 6.05567C2.83136 6.14591 2.89616 6.22031 2.98304 6.24719L4.65728 6.76799L5.17808 8.44223C5.20544 8.52959 5.27936 8.59343 5.3696 8.60783C5.38208 8.60975 5.39456 8.61071 5.40704 8.61071C5.48432 8.61071 5.55728 8.57327 5.60288 8.50943L6.61568 7.07759L8.36864 7.10015C8.44544 7.10015 8.54384 7.05023 8.5856 6.96911C8.62688 6.88799 8.61872 6.78959 8.56448 6.71663L7.51568 5.31167Z" fill="#D0D5DD"/>
<path d="M20.0893 17.8862L20.6533 16.2259C20.6826 16.139 20.6605 16.0435 20.5957 15.9787C20.5309 15.9144 20.4349 15.8928 20.349 15.9211L18.6882 16.4846L17.2822 15.4358C17.2093 15.3806 17.1118 15.372 17.0298 15.4142C16.9486 15.4555 16.8982 15.54 16.8992 15.6312L16.9222 17.3832L15.4899 18.396C15.4155 18.4483 15.3776 18.5395 15.3915 18.6292C15.4059 18.7195 15.4702 18.7939 15.5576 18.8207L17.2323 19.3415L17.7531 21.0163C17.7805 21.1036 17.8544 21.1675 17.9446 21.1823C17.9571 21.1843 17.9701 21.1852 17.9821 21.1852C18.0594 21.1852 18.1323 21.1483 18.1779 21.0839L19.1902 19.6516L20.9427 19.6747C20.9442 19.6747 20.9451 19.6747 20.9461 19.6747C21.0363 19.6747 21.1189 19.6243 21.1597 19.5441C21.2014 19.4625 21.1928 19.3646 21.1381 19.2916L20.0893 17.8862Z" fill="#D0D5DD"/>
<path d="M14.7538 19.0867C14.7005 19.0128 14.6088 18.9753 14.5191 18.9912L12.7901 19.2878L11.5666 18.0321C11.5032 17.9664 11.4067 17.9428 11.3208 17.9712C11.2339 17.9995 11.1706 18.0748 11.1576 18.1646L10.9056 19.9003L9.33314 20.6764C9.25106 20.7168 9.19922 20.8003 9.19922 20.8915C9.19922 20.9827 9.25106 21.0662 9.33314 21.1065L10.9056 21.8822L11.1581 23.6174C11.1711 23.7076 11.2344 23.783 11.3213 23.8108C11.3453 23.819 11.3707 23.8224 11.3952 23.8224C11.4591 23.8224 11.521 23.7969 11.5671 23.7499L12.7906 22.4947L14.5191 22.7913C14.6093 22.8072 14.7005 22.7697 14.7538 22.6958C14.8075 22.6219 14.8147 22.524 14.772 22.4433L13.956 20.8915L14.772 19.3392C14.8147 19.2585 14.808 19.1606 14.7538 19.0867Z" fill="#D0D5DD"/>
<path d="M14.5191 1.2077L12.7906 1.50482L11.5671 0.249137C11.5032 0.183377 11.4072 0.160337 11.3213 0.188657C11.2344 0.216977 11.1711 0.291857 11.1581 0.382577L10.9056 2.11826L9.33314 2.89394C9.25106 2.93426 9.19922 3.01778 9.19922 3.10898C9.19922 3.20018 9.25106 3.2837 9.33314 3.32402L10.9051 4.0997L11.1581 5.83538C11.1711 5.92562 11.2344 6.00098 11.3213 6.02882C11.3458 6.03698 11.3707 6.04034 11.3952 6.04034C11.4591 6.04034 11.5215 6.0149 11.5671 5.96786L12.7901 4.71218L14.5186 5.00882C14.6079 5.02514 14.7 4.9877 14.7533 4.9133C14.8071 4.83938 14.8143 4.74146 14.7715 4.66082L13.956 3.1085L14.772 1.5557C14.8147 1.47506 14.8075 1.37666 14.7538 1.30322C14.7005 1.2293 14.6093 1.19234 14.5191 1.2077Z" fill="#D0D5DD"/>
</svg>
