<svg width="40" height="40" viewBox="0 0 40 40" fill="none" xmlns="http://www.w3.org/2000/svg">
<path d="M7.76786 24.6208C7.90226 24.6936 8.06627 24.68 8.18866 24.5904C8.31186 24.5016 8.37346 24.3488 8.34786 24.1992L7.85346 21.3192L9.94627 19.2784C10.0551 19.172 10.0943 19.0128 10.0471 18.868C9.99987 18.7232 9.87507 18.6176 9.72387 18.596L6.83187 18.176L5.53827 15.5552C5.40387 15.2816 4.95507 15.2816 4.82147 15.5552L3.52867 18.176L0.635865 18.596C0.485465 18.6176 0.359864 18.7232 0.312664 18.868C0.265464 19.0128 0.304665 19.1712 0.413465 19.2776L2.50706 21.3184L2.01266 24.1984C1.98706 24.3488 2.04866 24.5008 2.17186 24.5896C2.24146 24.64 2.32386 24.6664 2.40706 24.6664C2.47106 24.6664 2.53506 24.6512 2.59346 24.62L5.17987 23.26L7.76786 24.6208Z" fill="#6C7AFF"/>
<path d="M39.6861 18.8696C39.6389 18.7248 39.5141 18.6192 39.3637 18.5976L36.4701 18.1768L35.1773 15.556C35.0429 15.2824 34.5941 15.2824 34.4605 15.556L33.1677 18.1768L30.2757 18.5976C30.1253 18.6192 29.9997 18.7248 29.9533 18.8696C29.9061 19.0144 29.9453 19.1728 30.0549 19.2792L32.1461 21.3184L31.6517 24.1992C31.6261 24.3496 31.6877 24.5016 31.8109 24.5904C31.9341 24.68 32.0973 24.692 32.2317 24.6208L34.8189 23.2608L37.4061 24.6208C37.4645 24.652 37.5277 24.6672 37.5917 24.6672C37.6749 24.6672 37.7573 24.6416 37.8269 24.5904C37.9501 24.5016 38.0117 24.3496 37.9861 24.1992L37.4917 21.3184L39.5845 19.2792C39.6941 19.1728 39.7333 19.0144 39.6861 18.8696Z" fill="#6C7AFF"/>
<path d="M11.7967 28.9736L11.8343 26.0528C11.8359 25.9008 11.7511 25.76 11.6159 25.6912C11.4807 25.6208 11.3175 25.6352 11.1951 25.7272L8.85274 27.476L6.08554 26.5368C5.94074 26.488 5.78234 26.5248 5.67434 26.6328C5.56634 26.7408 5.52954 26.9 5.57834 27.044L6.51674 29.812L4.76874 32.1544C4.67754 32.276 4.66394 32.4392 4.73354 32.5752C4.80234 32.7104 4.92474 32.7712 5.09514 32.7928L8.01674 32.7544L9.70394 35.1416C9.77994 35.2488 9.90234 35.3104 10.0303 35.3104C10.0511 35.3104 10.0719 35.3088 10.0927 35.3056C10.2431 35.2816 10.3671 35.1744 10.4119 35.0288L11.2799 32.2384L14.0703 31.3704C14.2159 31.3248 14.3223 31.2016 14.3463 31.0512C14.3703 30.9008 14.3063 30.7496 14.1823 30.6624L11.7967 28.9736Z" fill="#6C7AFF"/>
<path d="M26.0471 11.8344C26.0487 11.8344 26.0503 11.8344 26.0527 11.8344L28.9727 11.7968L30.6607 14.1832C30.7367 14.2904 30.8583 14.352 30.9871 14.352C31.0079 14.352 31.0287 14.3504 31.0495 14.3472C31.1999 14.3232 31.3239 14.216 31.3687 14.0712L32.2367 11.28L35.0279 10.412C35.1735 10.3664 35.2799 10.2432 35.3047 10.0928C35.3279 9.94236 35.2647 9.79196 35.1407 9.70396L32.7535 8.01676L32.7919 5.09516C32.7935 4.94316 32.7087 4.80316 32.5743 4.73356C32.4367 4.66476 32.2751 4.67836 32.1535 4.76876L29.8103 6.51676L27.0431 5.57756C26.8991 5.52956 26.7399 5.56636 26.6311 5.67356C26.5231 5.78156 26.4863 5.94076 26.5351 6.08476L27.4743 8.85196L25.7263 11.1952C25.6351 11.3168 25.6207 11.48 25.6903 11.616C25.7583 11.7504 25.8967 11.8344 26.0471 11.8344Z" fill="#6C7AFF"/>
<path d="M12.5258 8.85286L13.4642 6.08566C13.513 5.94166 13.4762 5.78246 13.3682 5.67446C13.2602 5.56726 13.1018 5.53046 12.957 5.57846L10.1898 6.51686L7.84741 4.76886C7.72581 4.67846 7.56261 4.66406 7.42661 4.73366C7.29141 4.80246 7.20661 4.94326 7.20821 5.09526L7.24581 8.01686L4.85941 9.70406C4.73541 9.79206 4.67141 9.94246 4.69541 10.0929C4.71861 10.2433 4.82661 10.3673 4.97141 10.4121L7.76181 11.2801L8.62981 14.0705C8.67541 14.2161 8.79861 14.3225 8.94901 14.3465C8.96981 14.3497 8.99061 14.3513 9.01141 14.3513C9.14021 14.3513 9.26181 14.2889 9.33781 14.1825L11.0258 11.7961L13.9474 11.8337C14.0754 11.8337 14.2394 11.7505 14.309 11.6153C14.3778 11.4801 14.3642 11.3161 14.2738 11.1945L12.5258 8.85286Z" fill="#6C7AFF"/>
<path d="M33.4828 29.8104L34.4228 27.0432C34.4716 26.8984 34.4348 26.7392 34.3268 26.6312C34.2188 26.524 34.0588 26.488 33.9156 26.5352L31.1476 27.4744L28.8044 25.7264C28.6828 25.6344 28.5204 25.62 28.3836 25.6904C28.2484 25.7592 28.1644 25.9 28.166 26.052L28.2044 28.972L25.8172 30.66C25.6932 30.7472 25.63 30.8992 25.6532 31.0488C25.6772 31.1992 25.7844 31.3232 25.93 31.368L28.7212 32.236L29.5892 35.0272C29.6348 35.1728 29.758 35.2792 29.9084 35.304C29.9292 35.3072 29.9508 35.3088 29.9708 35.3088C30.0996 35.3088 30.2212 35.2472 30.2972 35.14L31.9844 32.7528L34.9052 32.7912C34.9076 32.7912 34.9092 32.7912 34.9108 32.7912C35.0612 32.7912 35.1988 32.7072 35.2668 32.5736C35.3364 32.4376 35.322 32.2744 35.2308 32.1528L33.4828 29.8104Z" fill="#6C7AFF"/>
<path d="M24.5906 31.8111C24.5018 31.6879 24.349 31.6255 24.1994 31.6519L21.3178 32.1463L19.2786 30.0535C19.173 29.9439 19.0122 29.9047 18.869 29.9519C18.7242 29.9991 18.6186 30.1247 18.597 30.2743L18.177 33.1671L15.5562 34.4607C15.4194 34.5279 15.333 34.6671 15.333 34.8191C15.333 34.9711 15.4194 35.1103 15.5562 35.1775L18.177 36.4703L18.5978 39.3623C18.6194 39.5127 18.725 39.6383 18.8698 39.6847C18.9098 39.6983 18.9522 39.7039 18.993 39.7039C19.0994 39.7039 19.2026 39.6615 19.2794 39.5831L21.3186 37.4911L24.1994 37.9855C24.3498 38.0119 24.5018 37.9495 24.5906 37.8263C24.6802 37.7031 24.6922 37.5399 24.621 37.4055L23.261 34.8191L24.621 32.2319C24.6922 32.0975 24.681 31.9343 24.5906 31.8111Z" fill="#6C7AFF"/>
<path d="M24.1994 2.01279L21.3186 2.50799L19.2794 0.415188C19.173 0.305588 19.013 0.267188 18.8698 0.314388C18.725 0.361588 18.6194 0.486388 18.5978 0.637588L18.177 3.53039L15.5562 4.82319C15.4194 4.89039 15.333 5.02959 15.333 5.18159C15.333 5.33359 15.4194 5.47279 15.5562 5.53999L18.1762 6.83279L18.5978 9.72559C18.6194 9.87599 18.725 10.0016 18.8698 10.048C18.9106 10.0616 18.9522 10.0672 18.993 10.0672C19.0994 10.0672 19.2034 10.0248 19.2794 9.94639L21.3178 7.85359L24.1986 8.34799C24.3474 8.37519 24.501 8.31279 24.5898 8.18879C24.6794 8.06559 24.6914 7.90239 24.6202 7.76799L23.261 5.18079L24.621 2.59279C24.6922 2.45839 24.6802 2.29439 24.5906 2.17199C24.5018 2.04879 24.3498 1.98719 24.1994 2.01279Z" fill="#6C7AFF"/>
</svg>
