<svg width="24" height="24" viewBox="0 0 24 24" fill="none" xmlns="http://www.w3.org/2000/svg">
<path d="M14.4268 7.5041C14.145 7.48262 13.8479 7.58656 13.6415 7.79048L13.6415 7.79048L13.6397 7.79229L11.2784 10.1494L10.3194 9.19233C10.3191 9.19199 10.3187 9.19164 10.3184 9.1913C9.96588 8.83719 9.39329 8.83704 9.04106 9.19267L9.04094 9.19278L8.42402 9.81604C8.42398 9.81608 8.42394 9.81612 8.4239 9.81615C8.07377 10.1698 8.07428 10.739 8.42368 11.0925L8.42367 11.0925L8.42606 11.0948L10.635 13.2993L10.636 13.3002C10.9891 13.6506 11.5595 13.6508 11.9127 13.3006C11.9129 13.3005 11.913 13.3004 11.9131 13.3002L12.677 12.5457L12.6771 12.5457L12.6813 12.5414L15.5732 9.61517C15.9275 9.2622 15.9267 8.69174 15.5707 8.3398L15.57 8.33909L14.9641 7.74254L14.9632 7.74169C14.8058 7.58745 14.6085 7.51778 14.4268 7.5041ZM14.4268 7.5041C14.4269 7.50411 14.4271 7.50413 14.4273 7.50414L14.389 8.00267L14.4263 7.50406C14.4264 7.50408 14.4266 7.50409 14.4268 7.5041ZM11.9992 4.49962L17.238 6.77305V8.23056C17.238 10.5341 16.5542 12.3104 15.5218 13.585C14.5168 14.8254 13.3562 15.7472 11.9995 16.5149C10.645 15.747 9.48277 14.8235 8.47648 13.5845C7.44563 12.3134 6.76074 10.5355 6.76074 8.23056V6.77305L11.9992 4.49962Z" fill="#D0D5DD" stroke="#D0D5DD"/>
<path d="M20.3754 6.34487C20.0464 6.15613 19.6787 6.01436 19.2663 5.85928C19.1674 5.82311 19.0342 5.84541 19.0342 6.02266C19.0309 6.89411 19.342 7.5832 19.824 7.99014L20.1465 7.6081C20.1464 7.608 20.1463 7.6079 20.1462 7.6078M20.3754 6.34487L20.1462 7.6078M20.3754 6.34487C20.3798 6.50725 20.3968 6.67207 20.4293 6.83813L20.92 6.74189M20.3754 6.34487L20.92 6.74189M20.1462 7.6078C20.4271 7.84411 20.8131 7.94896 21.309 7.78712L20.5793 7.10785C20.3056 6.85303 19.9889 6.68607 19.5738 6.5153C19.6602 7.01488 19.8798 7.38271 20.1462 7.6078ZM20.92 6.74189L21.2607 6.37592C21.1386 6.26229 21.0114 6.16197 20.8801 6.07193M20.92 6.74189L20.8801 6.07193M20.8801 6.07193C20.9242 5.37921 21.2046 4.70857 21.4362 4.15483C21.4632 4.09023 21.4895 4.02722 21.5147 3.96595C21.5684 3.83241 21.7049 3.82819 21.7896 3.90657L20.8801 6.07193ZM22.4504 6.32967C22.4179 6.89776 22.103 7.39625 21.6097 7.66024L21.4106 6.64565C21.3332 6.25102 21.3853 5.83125 21.5082 5.39752C21.5841 5.12962 21.6814 4.87363 21.7827 4.62491C22.2781 5.2148 22.4784 5.81551 22.4504 6.32967Z" fill="#D0D5DD" stroke="#D0D5DD"/>
<path d="M20.9949 15.3678L20.7649 14.3966C20.6785 14.0317 20.5075 13.7182 20.2572 13.3453C20.051 13.8082 20.0292 14.2362 20.1256 14.5714L20.9949 15.3678ZM20.9949 15.3678C20.4902 15.2264 20.2272 14.9243 20.1256 14.5716L20.9949 15.3678ZM22.751 14.7893L22.751 14.7894C22.4105 15.2428 21.8733 15.4821 21.3152 15.4289L21.713 14.4736C21.8673 14.1031 22.1434 13.7835 22.4865 13.4913C22.6988 13.3105 22.9223 13.1516 23.1452 13.0008C23.2294 13.7666 23.0604 14.3774 22.751 14.7893Z" fill="#D0D5DD" stroke="#D0D5DD"/>
<path d="M20.0636 18.5759L20.0628 18.5764C19.5617 18.8398 18.9722 18.8259 18.492 18.5392L19.2598 17.8473C19.5582 17.5784 19.9448 17.4078 20.38 17.2908C20.6491 17.2185 20.9188 17.1707 21.1846 17.1301C20.9331 17.8577 20.5188 18.3378 20.0636 18.5759ZM18.4362 17.3711L18.2274 18.3454C17.8325 18.0014 17.7253 17.6168 17.7851 17.2564L17.7855 17.2541C17.8408 16.9115 18.044 16.534 18.4295 16.2028C18.4957 16.6467 18.5148 17.0042 18.4362 17.3711Z" fill="#D0D5DD" stroke="#D0D5DD"/>
<path fill-rule="evenodd" clip-rule="evenodd" d="M13.0308 20.396C13.0308 20.9663 12.569 21.4296 11.999 21.4296C11.429 21.4296 10.9678 20.9663 10.9678 20.396C10.9678 19.8259 11.4293 19.3647 11.999 19.3647C12.5687 19.3647 13.0308 19.8259 13.0308 20.396Z" fill="#D0D5DD"/>
<path d="M19.8677 5.33069C18.4064 4.86889 18.2773 3.89253 18.2773 2.32264C18.2773 2.00101 18.331 1.96785 18.5788 2.02C20.2258 2.36665 20.8887 3.88499 20.2825 5.18509C20.1821 5.3964 20.0594 5.39007 19.8677 5.33069Z" fill="#D0D5DD"/>
<path d="M23.3171 7.86904C23.9469 8.79867 24.1307 9.74036 23.9107 10.5129C23.6939 11.2795 23.0769 11.8601 22.2856 12.0126C21.4944 12.1648 20.8806 11.9182 20.5035 11.4206C20.1237 10.9199 19.9697 10.1771 20.1647 9.328C20.2051 9.15497 20.3386 9.16311 20.4285 9.22129C21.0127 9.60592 21.4962 9.93087 21.8476 10.4439C21.8745 9.42355 22.5666 8.53491 23.0362 7.86602C23.1194 7.74816 23.2526 7.77197 23.3171 7.86904Z" fill="#D0D5DD"/>
<path d="M18.5751 20.1467C17.8481 21.0022 16.9905 21.4323 16.1868 21.4296C15.391 21.4245 14.6673 20.9865 14.308 20.2661C13.9484 19.5453 14.0207 18.8876 14.3972 18.3899C14.7785 17.8889 15.4522 17.542 16.3219 17.5013C16.4994 17.4937 16.5293 17.6255 16.4961 17.7259C16.2839 18.3929 16.0991 18.9473 15.7 19.4211C16.689 19.1731 17.7317 19.6035 18.5028 19.8733C18.6393 19.9224 18.6502 20.0569 18.5751 20.1467Z" fill="#D0D5DD"/>
<path d="M2.20895 3.90657C1.39115 4.67734 1.00651 5.55483 1.05022 6.35755C1.09423 7.15335 1.56839 7.85359 2.30782 8.17522C3.04574 8.49716 3.69895 8.39196 4.17583 7.99014C4.65662 7.5832 4.96891 6.89411 4.96409 6.02266C4.96409 5.84541 4.83055 5.82311 4.73168 5.85928C4.07696 6.10616 3.53407 6.31927 3.07889 6.74189C3.27664 5.73991 2.79464 4.72075 2.48506 3.96595C2.4305 3.83241 2.29365 3.82819 2.20895 3.90657Z" fill="#D0D5DD"/>
<path d="M0.44886 12.408C0.197763 13.504 0.365663 14.4475 0.847662 15.0896C1.32665 15.7271 2.11159 16.0442 2.90407 15.9032C3.69715 15.76 4.18066 15.3096 4.35338 14.7098C4.52761 14.1039 4.40372 13.3578 3.91539 12.6362C3.81652 12.4882 3.69384 12.5433 3.63114 12.6298C3.2242 13.1999 2.8899 13.6767 2.74913 14.2814C2.35636 13.3397 1.38935 12.7601 0.71081 12.3046C0.591742 12.2247 0.475085 12.2952 0.44886 12.408Z" fill="#D0D5DD"/>
<path d="M2.19428 16.7678C2.43604 17.865 2.9934 18.647 3.70328 19.0189C4.40985 19.3894 5.25448 19.3406 5.9089 18.873C6.56513 18.4037 6.80839 17.7897 6.70771 17.1744C6.60582 16.5526 6.17417 15.931 5.42359 15.4864C5.27136 15.3972 5.18334 15.4994 5.16435 15.6043C5.04046 16.2936 4.9434 16.8682 5.07332 17.4759C4.3149 16.7925 3.19415 16.6828 2.3869 16.5619C2.24462 16.5402 2.16896 16.6551 2.19428 16.7678Z" fill="#D0D5DD"/>
<path d="M4.13082 5.33069C5.59249 4.86889 5.72301 3.89253 5.72301 2.32264C5.72301 2.00101 5.66785 1.96785 5.42158 2.02C3.77332 2.36665 3.11045 3.88499 3.71815 5.18509C3.81672 5.3964 3.93941 5.39007 4.13082 5.33069Z" fill="#D0D5DD"/>
<path d="M0.681534 7.86904C0.0521326 8.79867 -0.129936 9.74036 0.0883052 10.5129C0.306546 11.2795 0.923589 11.8601 1.71456 12.0126C2.50433 12.1648 3.11866 11.9182 3.49666 11.4206C3.87647 10.9199 4.0287 10.1771 3.83427 9.328C3.79478 9.15497 3.65974 9.16311 3.57232 9.22129C2.98693 9.60592 2.50282 9.93087 2.15285 10.4439C2.12482 9.42355 1.43211 8.53491 0.964283 7.86602C0.880483 7.74816 0.747248 7.77197 0.681534 7.86904Z" fill="#D0D5DD"/>
<path d="M5.42395 20.1467C6.15102 21.0022 7.00951 21.4323 7.81164 21.4296C8.60774 21.4245 9.3333 20.9865 9.69261 20.2661C10.0522 19.5453 9.97837 18.8876 9.60127 18.3899C9.21965 17.8889 8.54775 17.542 7.67629 17.5013C7.49905 17.4937 7.47101 17.6255 7.50236 17.7259C7.71578 18.3929 7.89936 18.9473 8.29997 19.4211C7.30914 19.1731 6.26858 19.6035 5.4978 19.8733C5.36125 19.9224 5.34829 20.0569 5.42395 20.1467Z" fill="#D0D5DD"/>
</svg>
