<svg width="40" height="40" viewBox="0 0 40 40" fill="none" xmlns="http://www.w3.org/2000/svg">
<path d="M23.9817 13.3378C24.1229 13.3483 24.256 13.4006 24.3555 13.4981L25.3653 14.4923C25.63 14.754 25.63 15.175 25.3653 15.4368L20.5428 20.3166L19.2682 21.5756C19.0044 21.8373 18.5774 21.8373 18.3136 21.5756L14.6321 17.9016C14.3703 17.6368 14.3703 17.2108 14.6321 16.9465L15.6605 15.9075C15.9217 15.6438 16.3458 15.6438 16.6075 15.9075L18.7975 18.093L23.3215 13.5769C23.4893 13.4111 23.7461 13.3197 23.9817 13.3378ZM19.9911 6.62879C19.9364 6.62879 19.8811 6.64185 19.8339 6.66245L10.7697 10.5962C10.5707 10.664 10.4346 10.8544 10.4346 11.0644V13.7176C10.4346 17.7312 11.6303 20.8848 13.4806 23.1662C15.3354 25.4501 17.4917 27.112 19.9987 28.478C22.5107 27.112 24.6644 25.4531 26.5173 23.1662C28.3696 20.8793 29.5633 17.7287 29.5633 13.7176V11.0644C29.5633 10.8519 29.4317 10.664 29.2282 10.5962L20.1635 6.66245C20.1037 6.63633 20.0464 6.62628 19.9911 6.62879Z" fill="#F8B551"/>
<path d="M36.3171 6.51102C37.6801 7.79565 38.3236 9.25812 38.2503 10.596C38.1749 11.9223 37.3841 13.0894 36.1553 13.6255C34.9254 14.162 33.8367 13.9867 33.0409 13.317C32.2376 12.6387 31.7191 11.4903 31.7247 10.0378C31.7247 9.74243 31.9467 9.70526 32.1115 9.76554C33.2057 10.177 34.111 10.5322 34.8676 11.2366C34.5401 9.5666 35.3409 7.86799 35.8589 6.61C35.9483 6.38743 36.1759 6.3804 36.3171 6.51102Z" fill="#F8B551"/>
<path d="M39.2499 20.68C39.6714 22.5067 39.3885 24.0792 38.5847 25.1493C37.7869 26.2119 36.4812 26.7404 35.1599 26.5053C33.8381 26.2667 33.0297 25.5161 32.7418 24.5163C32.4514 23.5065 32.6579 22.2631 33.4723 21.0603C33.6371 20.8136 33.8431 20.9056 33.9461 21.0498C34.6233 21.9998 35.1805 22.7946 35.4191 23.8024C36.0727 22.2329 37.6824 21.2668 38.8128 20.5077C39.0142 20.3746 39.2052 20.4921 39.2499 20.68Z" fill="#F8B551"/>
<path d="M36.3408 27.9465C35.9404 29.7752 35.0115 31.0784 33.8263 31.6984C32.6517 32.3158 31.2415 32.2344 30.1503 31.4552C29.0591 30.673 28.6501 29.6496 28.8204 28.6242C28.9877 27.5878 29.7102 26.5518 30.9617 25.8108C31.2154 25.6621 31.3616 25.8324 31.3932 26.0072C31.6002 27.1562 31.7595 28.1138 31.5424 29.1266C32.8064 27.9877 34.6749 27.8048 36.0218 27.6033C36.2594 27.5672 36.382 27.7586 36.3408 27.9465Z" fill="#F8B551"/>
<path fill-rule="evenodd" clip-rule="evenodd" d="M21.7187 33.9934C21.7187 34.9439 20.949 35.7161 19.999 35.7161C19.0489 35.7161 18.2803 34.9439 18.2803 33.9934C18.2803 33.0433 19.0494 32.2747 19.999 32.2747C20.9485 32.2747 21.7187 33.0433 21.7187 33.9934Z" fill="#F8B551"/>
<path d="M33.1135 8.88452C30.6779 8.11485 30.4629 6.48759 30.4629 3.87111C30.4629 3.33505 30.5523 3.27979 30.9653 3.36671C33.7104 3.94446 34.8151 6.47503 33.8048 8.64186C33.6375 8.99404 33.4331 8.98349 33.1135 8.88452Z" fill="#F8B551"/>
<path d="M38.8619 13.1151C39.9114 14.6645 40.2179 16.234 39.8511 17.5217C39.4899 18.7993 38.4615 19.7669 37.1427 20.0211C35.8239 20.2748 34.801 19.8638 34.1725 19.0344C33.5395 18.1999 33.2828 16.962 33.6079 15.5467C33.6752 15.2584 33.8977 15.2719 34.0475 15.3689C35.0211 16.01 35.8269 16.5515 36.4127 17.4066C36.4574 15.706 37.6109 14.2249 38.3937 13.1101C38.5323 12.9137 38.7544 12.9534 38.8619 13.1151Z" fill="#F8B551"/>
<path d="M30.9582 33.5779C29.7464 35.0037 28.3171 35.7206 26.9777 35.7161C25.6514 35.7075 24.4452 34.9776 23.8463 33.7768C23.2469 32.5756 23.3675 31.4794 23.995 30.6499C24.6305 29.8149 25.7534 29.2367 27.2028 29.1689C27.4987 29.1563 27.5485 29.3758 27.4932 29.5431C27.1395 30.6549 26.8315 31.5788 26.1664 32.3686C27.8147 31.9551 29.5525 32.6726 30.8376 33.1222C31.0652 33.2041 31.0833 33.4282 30.9582 33.5779Z" fill="#F8B551"/>
<path d="M3.6819 6.51102C2.3189 7.79565 1.67784 9.25812 1.75069 10.596C1.82404 11.9223 2.61431 13.0894 3.84669 13.6255C5.07655 14.162 6.16525 13.9867 6.96004 13.317C7.76136 12.6387 8.28184 11.4903 8.2738 10.0378C8.2738 9.74243 8.05124 9.70526 7.88646 9.76554C6.79525 10.177 5.89044 10.5322 5.13182 11.2366C5.46139 9.5666 4.65806 7.86799 4.1421 6.61C4.05116 6.38743 3.82308 6.3804 3.6819 6.51102Z" fill="#F8B551"/>
<path d="M0.748751 20.68C0.330255 22.5067 0.61009 24.0792 1.41342 25.1493C2.21173 26.2119 3.51997 26.7404 4.84077 26.5053C6.16257 26.2667 6.96841 25.5161 7.25629 24.5163C7.54667 23.5065 7.34019 22.2631 6.52631 21.0603C6.36152 20.8136 6.15704 20.9056 6.05255 21.0498C5.37431 21.9998 4.81715 22.7946 4.58254 23.8024C3.92791 22.2329 2.31623 21.2668 1.18533 20.5077C0.986887 20.3746 0.79246 20.4921 0.748751 20.68Z" fill="#F8B551"/>
<path d="M3.65844 27.9465C4.06137 29.7752 4.99029 31.0784 6.17344 31.6984C7.35105 32.3158 8.75877 32.2344 9.84947 31.4552C10.9432 30.673 11.3486 29.6496 11.1808 28.6242C11.011 27.5878 10.2916 26.5518 9.04061 25.8108C8.7869 25.6621 8.6402 25.8324 8.60855 26.0072C8.40207 27.1562 8.24029 28.1138 8.45683 29.1266C7.1928 27.9877 5.32489 27.8048 3.97947 27.6033C3.74234 27.5672 3.61624 27.7586 3.65844 27.9465Z" fill="#F8B551"/>
<path d="M6.88405 8.88452C9.32017 8.11485 9.53771 6.48759 9.53771 3.87111C9.53771 3.33505 9.44577 3.27979 9.03531 3.36671C6.28821 3.94446 5.18344 6.47503 6.19627 8.64186C6.36055 8.99404 6.56503 8.98349 6.88405 8.88452Z" fill="#F8B551"/>
<path d="M1.13589 13.1151C0.0868877 14.6645 -0.216559 16.234 0.147175 17.5217C0.51091 18.7993 1.53931 19.7669 2.8576 20.0211C4.17388 20.2748 5.19776 19.8638 5.82777 19.0344C6.46079 18.1999 6.7145 16.962 6.39045 15.5467C6.32464 15.2584 6.09956 15.2719 5.95387 15.3689C4.97822 16.01 4.17137 16.5515 3.58809 17.4066C3.54136 15.706 2.38686 14.2249 1.60714 13.1101C1.46747 12.9137 1.24541 12.9534 1.13589 13.1151Z" fill="#F8B551"/>
<path d="M9.04057 33.5779C10.2523 35.0037 11.6832 35.7206 13.0201 35.7161C14.3469 35.7075 15.5561 34.9776 16.155 33.7768C16.7544 32.5756 16.6313 31.4794 16.0028 30.6499C15.3667 29.8149 14.2469 29.2367 12.7945 29.1689C12.4991 29.1563 12.4523 29.3758 12.5046 29.5431C12.8603 30.6549 13.1662 31.5788 13.8339 32.3686C12.1826 31.9551 10.4483 32.6726 9.16366 33.1222C8.93607 33.2041 8.91447 33.4282 9.04057 33.5779Z" fill="#F8B551"/>
</svg>
