<svg width="40" height="40" viewBox="0 0 40 40" fill="none" xmlns="http://www.w3.org/2000/svg">
<path d="M21.5981 10.4253C21.6402 10.3831 21.7244 10.3831 21.7665 10.4253L28.7569 13.6256C28.9253 13.7099 28.9253 13.9204 28.7569 13.9625L21.7665 17.1629C21.7244 17.205 21.6402 17.205 21.5981 17.1629L14.6078 13.9625C14.4393 13.8783 14.4393 13.6678 14.6078 13.6256L21.5981 10.4253Z" fill="#38D98B"/>
<path d="M30.2729 15.7733C30.3992 15.7312 30.5255 15.8154 30.5255 15.9417V25.964C30.5255 26.0482 30.4834 26.0903 30.3992 26.1324L23.072 29.5013C22.9457 29.5434 22.8193 29.4591 22.8193 29.3328V19.3106C22.8193 19.2263 22.8614 19.1842 22.9457 19.1421L30.2729 15.7733Z" fill="#38D98B"/>
<path d="M20.5451 19.3108V29.333C20.5451 29.4594 20.4187 29.5857 20.2924 29.5015L12.9652 26.1326C12.881 26.0905 12.8389 26.0484 12.8389 25.9642V15.9419C12.8389 15.8156 12.9652 15.6893 13.0915 15.7735L20.4187 19.1423C20.5029 19.1844 20.5451 19.2265 20.5451 19.3108Z" fill="#38D98B"/>
<path d="M0.121507 18.974C0.289948 18.6371 0.668941 18.4265 1.04793 18.4265H3.49033C4.24832 9.03594 12.123 1.66663 21.682 1.66663C31.7885 1.66663 40 9.87814 40 19.9846C40 28.4909 33.9782 36.0287 25.6825 37.8394C25.5983 37.8815 25.4719 37.8815 25.3877 37.8815C24.7561 37.8815 24.1665 37.4183 24.0402 36.7867C23.8717 36.0287 24.335 35.2707 25.0929 35.1022C32.1254 33.5442 37.2207 27.1855 37.2207 19.9425C37.2207 11.3941 30.2725 4.44591 21.7241 4.44591C13.681 4.44591 7.06971 10.594 6.31173 18.4265H8.58569C8.96468 18.4265 9.34367 18.6371 9.51211 18.974C9.68055 19.3109 9.68055 19.732 9.42789 20.0688L5.68007 25.459C5.46952 25.7537 5.17475 25.9222 4.83786 25.9222C4.50098 25.9222 4.1641 25.7537 3.99566 25.459L0.163617 20.0688C-0.0469345 19.732 -0.0469346 19.3109 0.121507 18.974Z" fill="#38D98B"/>
<path d="M19.0717 35.2283C19.198 35.2704 19.3665 35.2704 19.4928 35.3125C19.9139 35.3547 20.335 35.3968 20.7561 35.4389C21.5141 35.481 22.1036 36.1548 22.0615 36.9127C22.0194 37.6707 21.3878 38.2182 20.6719 38.2182C20.6298 38.2182 20.6298 38.2182 20.5877 38.2182C20.0823 38.176 19.577 38.1339 19.1138 38.0497C18.9454 38.0076 18.7769 38.0076 18.6085 37.9655C17.8505 37.8392 17.3452 37.0812 17.4715 36.3232C17.5978 35.5652 18.2716 35.102 19.0717 35.2283Z" fill="#38D98B"/>
<path d="M9.13285 29.0383C9.46973 29.5015 9.84872 29.9648 10.2277 30.3859C10.733 30.9754 10.6909 31.8597 10.1435 32.365C9.89083 32.6177 9.55395 32.744 9.21707 32.744C8.83808 32.744 8.45908 32.5756 8.16431 32.2808C7.7011 31.7755 7.27999 31.2702 6.901 30.7227C6.43779 30.0911 6.60623 29.2068 7.19577 28.7857C7.82743 28.2803 8.66963 28.4488 9.13285 29.0383Z" fill="#38D98B"/>
<path d="M13.4705 33.1231C13.9337 33.4179 14.439 33.7127 14.9865 33.9653C15.7023 34.3022 15.955 35.1444 15.6602 35.8182C15.4076 36.3235 14.9022 36.6183 14.3969 36.6183C14.1864 36.6183 13.9758 36.5762 13.8074 36.492C13.2178 36.1972 12.6283 35.8603 12.0387 35.5234C11.365 35.1023 11.1965 34.2601 11.5755 33.5863C11.9545 32.9126 12.8388 32.702 13.4705 33.1231Z" fill="#38D98B"/>
</svg>
